<?xml version="1.0" standalone="no"?>
<!DOCTYPE svg PUBLIC "-//W3C//DTD SVG 20010904//EN"
 "http://www.w3.org/TR/2001/REC-SVG-20010904/DTD/svg10.dtd">
<svg version="1.0" xmlns="http://www.w3.org/2000/svg"
 width="659.000000pt" height="661.000000pt" viewBox="0 0 659.000000 661.000000"
 preserveAspectRatio="xMidYMid meet">
<g transform="translate(0.000000,661.000000) scale(0.100000,-0.100000)"
fill="#000000" stroke="none">
<path d="M3547 6586 c-143 -59 -241 -155 -427 -416 -120 -170 -179 -308 -216
-508 -8 -48 -18 -97 -20 -109 l-4 -23 -1440 0 -1440 0 0 -85 0 -85 1433 0
1434 0 7 -141 c7 -156 26 -320 56 -478 l20 -104 -36 -44 -35 -43 -1440 0
-1439 0 0 -85 0 -85 1343 0 1342 0 -108 -112 c-244 -255 -389 -432 -488 -599
l-52 -89 -1019 0 -1018 0 0 -85 0 -85 975 0 c536 0 975 -4 975 -8 0 -5 -13
-46 -28 -93 -62 -181 -81 -384 -59 -616 l7 -83 -935 0 -935 0 0 -85 0 -85 958
0 959 0 12 -42 c44 -148 180 -366 310 -496 98 -98 176 -158 289 -219 l77 -43
-1302 0 -1303 0 0 -90 0 -90 1720 0 1720 0 5 -22 c14 -64 56 -369 66 -480 27
-286 -38 -520 -189 -680 -179 -190 -395 -255 -571 -172 l-65 30 60 22 c123 45
259 155 303 245 102 210 -26 490 -246 537 -71 15 -195 0 -267 -33 -186 -86
-288 -329 -231 -552 42 -162 184 -292 370 -340 87 -22 260 -20 365 5 222 54
376 170 463 350 106 221 121 438 57 874 -16 114 -30 210 -30 212 0 2 689 4
1530 4 l1530 0 0 90 0 90 -1442 0 -1443 1 80 42 c44 23 103 58 130 79 60 43
167 154 218 224 78 109 154 288 172 407 l7 47 1139 0 1139 0 0 85 0 85 -402 0
-403 1 80 33 c141 57 219 116 296 220 l59 80 0 233 0 233 185 0 185 0 0 85 0
85 -185 0 -185 0 0 400 0 400 185 0 185 0 0 85 0 85 -185 0 -185 0 0 405 0
405 185 0 185 0 0 85 0 85 -185 0 -185 0 0 300 0 300 -85 0 -85 0 0 -300 0
-300 -1055 0 -1055 0 0 135 c0 353 -76 657 -221 878 -40 62 -46 67 -79 67 -19
0 -61 -11 -93 -24z m178 -323 c61 -98 80 -177 79 -328 -1 -136 -18 -221 -67
-347 l-22 -58 -292 0 -292 0 16 38 c60 145 179 349 286 492 71 95 227 260 246
260 5 0 26 -26 46 -57z m-124 -935 c-35 -56 -136 -190 -191 -253 -83 -96 -352
-365 -360 -360 -8 5 -13 30 -35 199 -11 83 -12 129 -4 190 9 74 44 230 55 248
3 4 129 8 281 8 l275 0 -21 -32z m2449 -373 l0 -405 -1281 0 c-1253 0 -1281 0
-1268 19 8 10 42 54 75 98 164 211 280 437 334 651 l11 42 1064 0 1065 0 0
-405z m0 -975 l0 -400 -1417 0 -1418 0 -44 295 -45 296 104 104 105 105 1357
0 1358 0 0 -400z m-2965 -163 c20 -126 35 -231 32 -233 -2 -2 -127 -3 -278 -2
l-273 3 74 85 c41 46 147 158 235 248 132 136 161 161 167 145 3 -10 23 -121
43 -246z m-285 -444 c-107 -92 -227 -284 -270 -433 -15 -51 -24 -116 -27 -202
l-6 -128 -147 0 -148 0 -7 48 c-7 50 7 217 25 299 28 128 95 282 172 396 l39
57 206 0 207 0 -44 -37z m2070 0 c-189 -111 -271 -285 -209 -448 42 -113 191
-234 362 -295 l52 -19 -377 0 -378 -1 0 38 c0 51 -34 205 -65 299 -54 161
-131 288 -238 395 l-68 68 493 0 493 0 -65 -37z m-1287 -277 c216 -73 334
-212 391 -458 l6 -28 -310 0 c-179 0 -310 4 -310 9 0 5 -16 121 -35 258 -19
136 -35 250 -35 252 0 2 48 1 108 -1 80 -4 126 -12 185 -32z m-388 -8 c3 -13
19 -113 35 -223 17 -110 33 -212 36 -227 l6 -28 -251 0 c-288 0 -266 -10 -231
102 46 150 190 309 341 378 55 25 58 25 64 -2z m-609 -715 c48 -83 198 -235
277 -282 69 -40 149 -52 182 -28 11 9 18 17 15 19 -92 68 -130 102 -167 147
-42 52 -92 139 -107 189 l-7 22 259 0 258 0 59 -380 c32 -209 56 -382 53 -385
-22 -22 -322 -33 -424 -14 -255 45 -498 209 -626 425 -43 71 -128 298 -128
339 0 13 26 15 159 15 l158 0 39 -67z m1414 4 c0 -181 -111 -415 -262 -551
-51 -47 -214 -144 -224 -134 -8 10 -124 684 -124 725 l0 23 305 0 305 0 0 -63z"/>
</g>
</svg>
