<?xml version="1.0" encoding="utf-8"?>
<svg viewBox="0 0 187.79515 187.79515" width="187.79515" height="187.79515" xmlns="http://www.w3.org/2000/svg">
  <g transform="matrix(1, 0, 0, 1, 0, -156.558243)">
    <g id="layer1" transform="matrix(1, 0, 0, 1, 0, -712.204773)">
      <rect id="rect3755" style="fill:#000000" height="31.541948" width="6.3083901" y="886.96301" x="89.130585"/>
      <rect id="rect3755-5-2" style="fill:#000000" transform="matrix(0,1,-1,0,0,0)" height="31.541948" width="6.3083901" y="-49.70311" x="957.99561"/>
      <rect id="rect3755-50" style="fill:#000000" transform="matrix(0.70710678,-0.70710678,0.70710678,0.70710678,0,0)" height="31.541948" width="6.3083901" y="671.05225" x="-618.94287"/>
      <rect id="rect3755-50-45" style="fill: rgb(0, 0, 0);" transform="matrix(0.707107, 0.707107, 0.707107, -0.707107, -8.728838, 1608.722962)" height="31.542" width="3.304" y="571.856" x="-388.883"/>
      <rect id="rect3755-50-45-0" style="fill: rgb(0, 0, 0);" transform="matrix(0.707107, 0.707107, 0.707107, -0.707107, -162.714423, 1784.295253)" height="31.542" width="3.454" y="688.372" x="-405.708"/>
      <rect id="rect3755-50-6-4" style="fill:#000000" transform="matrix(-0.38268034,-0.92388081,0.92388081,-0.38268034,0,0)" height="31.541924" width="3.1541922" y="-356.36407" x="-922.63251"/>
      <rect id="rect3755-50-6-5" style="fill:#000000" transform="matrix(-0.38268034,0.92388081,0.92388081,0.38268034,0,0)" height="31.541924" width="3.1541922" y="379.21652" x="852.37567"/>
      <rect id="rect3755-50-6-57-3-3" style="fill:#000000" transform="matrix(-0.92388081,0.38268034,-0.38268034,-0.92388081,0,0)" height="31.541924" width="3.1541922" y="-881.01294" x="281.51498"/>
      <rect id="rect3755-50-6-57-3-8" style="fill:#000000" transform="matrix(0.92388081,0.38268034,0.38268034,-0.92388081,0,0)" height="31.541924" width="3.1541922" y="-810.03064" x="452.06256"/>
      <path style="stroke: rgb(0, 0, 0);" d="M 120.877 933.344 C 106.738 916.875 77.933 918.44 63.52 934.832 C 47.958 952.532 53.445 979.806 65.006 989.215"/>
    </g>
  </g>
  <path style="" d="M 126.861 159.956 C 138.56 153.788 153.992 140.873 155.559 127.241 C 153.802 129.279 139.467 134.202 132.836 135.014 C 89.774 140.289 76.451 118.692 73.184 111.728 C 69.917 104.764 37.702 139.809 39.402 143.547 C 41.102 147.285 64.296 168.389 96.477 167.662 C 101.933 167.539 117.282 165.668 126.861 159.956 Z" id="path3" transform="matrix(0.999996, -0.002836, 0.002836, 0.999996, -0.410049, 0.27478)"/>
  <polygon style="" points="118.5 90.267 110.458 82.426 121.568 80.814 126.543 70.743 131.509 80.814 142.623 82.426 134.581 90.267 136.479 101.333 126.543 96.109 116.602 101.333" id="polygon5"/>
  <polygon style="" points="140.419 119.134 136.341 115.158 141.978 114.34 144.497 109.231 147.017 114.34 152.654 115.158 148.576 119.134 149.537 124.747 144.497 122.096 139.458 124.747" id="polygon7"/>
  <polygon style="" points="95.301 106.13 91.227 102.154 96.86 101.336 99.383 96.227 101.903 101.336 107.54 102.154 103.458 106.13 104.423 111.742 99.383 109.091 94.34 111.742" id="polygon9"/>
</svg>