<?xml version="1.0" standalone="no"?>
<!DOCTYPE svg PUBLIC "-//W3C//DTD SVG 20010904//EN"
 "http://www.w3.org/TR/2001/REC-SVG-20010904/DTD/svg10.dtd">
<svg version="1.0" xmlns="http://www.w3.org/2000/svg"
 width="150.000000pt" height="150.000000pt" viewBox="0 0 150.000000 150.000000"
 preserveAspectRatio="xMidYMid meet">

<g transform="translate(0.000000,150.000000) scale(0.100000,-0.100000)"
fill="#000000" stroke="none">
<path d="M339 1334 c-44 -48 -56 -83 -103 -295 -62 -280 -96 -499 -121 -774
-4 -38 -9 -78 -11 -87 -4 -13 3 -21 22 -28 15 -6 28 -9 30 -7 2 1 19 79 39
172 76 351 168 667 200 679 9 3 12 0 8 -10 -6 -17 8 -18 26 -1 11 10 13 9 8
-5 -9 -27 6 -31 25 -6 l19 23 -7 -29 c-5 -22 -4 -27 7 -24 8 3 14 14 13 26 0
12 3 19 7 16 4 -2 10 2 12 8 3 7 6 -4 6 -24 1 -36 15 -52 23 -27 2 6 17 -22
33 -62 52 -135 193 -413 266 -524 80 -123 157 -225 171 -225 26 0 11 39 -57
145 -91 142 -255 464 -255 499 0 21 6 26 33 30 279 43 469 91 481 121 3 8 1
27 -5 41 -9 25 -12 26 -62 20 -28 -3 -126 -9 -217 -12 -162 -6 -166 -6 -200
18 -19 13 -47 48 -63 78 -25 48 -26 55 -12 58 10 2 121 -1 249 -7 127 -6 288
-11 358 -11 l127 0 6 34 c9 44 -7 72 -47 85 -53 17 -328 70 -502 97 -91 14
-231 27 -321 31 l-160 5 -26 -28z m226 -39 c30 -29 32 -55 7 -86 -38 -45 -122
-16 -122 43 0 25 44 68 70 68 12 0 32 -11 45 -25z m-66 -199 c15 -41 18 -63
11 -70 -7 -7 -10 -6 -10 3 0 11 -3 11 -16 1 -12 -11 -15 -11 -12 1 2 8 -3 13
-9 12 -7 -2 -13 2 -13 8 0 6 -6 9 -14 6 -18 -7 -12 42 10 84 19 37 24 33 53
-45z"/>
</g>
</svg>
