<?xml version="1.0" encoding="utf-8"?>
<svg viewBox="0 0 187.79515 187.79515" width="187.79515" height="187.79515" xmlns="http://www.w3.org/2000/svg">
  <g transform="matrix(1, 0, 0, 1, 0, -156.558243)">
    <g id="layer1" transform="matrix(1, 0, 0, 1, 0, -712.204773)">
      <ellipse ry="39.427288" rx="39.427315" cy="961.09741" cx="92.284912" id="path3753" style="fill:#000000"/>
      <rect id="rect3755" style="fill:#000000" height="31.541948" width="6.3083901" y="886.96301" x="89.130585"/>
      <rect id="rect3755-7" style="fill:#000000" height="31.541948" width="6.3083901" y="1003.7314" x="89.130585"/>
      <rect id="rect3755-5" style="fill:#000000" transform="matrix(0,1,-1,0,0,0)" height="31.541948" width="6.3083901" y="-165.83588" x="957.99561"/>
      <rect id="rect3755-5-2" style="fill:#000000" transform="matrix(0,1,-1,0,0,0)" height="31.541948" width="6.3083901" y="-49.70311" x="957.99561"/>
      <rect id="rect3755-50" style="fill:#000000" transform="matrix(0.70710678,-0.70710678,0.70710678,0.70710678,0,0)" height="31.541948" width="6.3083901" y="671.05225" x="-618.94287"/>
      <rect id="rect3755-50-4" style="fill:#000000" transform="matrix(0.70710678,-0.70710678,0.70710678,0.70710678,0,0)" height="31.541948" width="6.3083901" y="787.44189" x="-618.1543"/>
      <rect id="rect3755-50-45" style="fill:#000000" transform="matrix(0.70710678,0.70710678,0.70710678,-0.70710678,0,0)" height="31.542095" width="6.3084188" y="-571.85553" x="742.48413"/>
      <rect id="rect3755-50-6" style="fill:#000000" transform="matrix(-0.38268034,-0.92388081,0.92388081,-0.38268034,0,0)" height="31.541924" width="3.1541922" y="-239.8166" x="-925.14014"/>
      <rect id="rect3755-50-45-0" style="fill:#000000" transform="matrix(0.70710678,0.70710678,0.70710678,-0.70710678,0,0)" height="31.542095" width="6.3084188" y="-688.37183" x="740.92297"/>
      <rect id="rect3755-50-6-4" style="fill:#000000" transform="matrix(-0.38268034,-0.92388081,0.92388081,-0.38268034,0,0)" height="31.541924" width="3.1541922" y="-356.36407" x="-922.63251"/>
      <rect id="rect3755-50-6-5" style="fill:#000000" transform="matrix(-0.38268034,0.92388081,0.92388081,0.38268034,0,0)" height="31.541924" width="3.1541922" y="379.21652" x="852.37567"/>
      <rect id="rect3755-50-6-57" style="fill:#000000" transform="matrix(0.38268034,-0.92388081,-0.92388081,-0.38268034,0,0)" height="31.541924" width="3.1541922" y="-527.164" x="-855.13562"/>
      <rect id="rect3755-50-6-57-3" style="fill:#000000" transform="matrix(-0.92388081,0.38268034,-0.38268034,-0.92388081,0,0)" height="31.541924" width="3.1541922" y="-997.4184" x="281.07343"/>
      <rect id="rect3755-50-6-57-3-3" style="fill:#000000" transform="matrix(-0.92388081,0.38268034,-0.38268034,-0.92388081,0,0)" height="31.541924" width="3.1541922" y="-881.01294" x="281.51498"/>
      <rect id="rect3755-50-6-57-3-8" style="fill:#000000" transform="matrix(0.92388081,0.38268034,0.38268034,-0.92388081,0,0)" height="31.541924" width="3.1541922" y="-810.03064" x="452.06256"/>
      <rect id="rect3755-50-6-57-3-8-6" style="fill:#000000" transform="matrix(0.92388081,0.38268034,0.38268034,-0.92388081,0,0)" height="31.541924" width="3.1541922" y="-926.72009" x="450.53284"/>
      <ellipse ry="39.427288" rx="39.427315" cy="961.09741" cx="92.284912" id="path3753-1" style="fill:#000000"/>
    </g>
  </g>
</svg>