<?xml version="1.0" encoding="utf-8"?>
<svg viewBox="0 0 372.537 365.148" width="372.537" height="365.148" xmlns="http://www.w3.org/2000/svg" xmlns:bx="https://boxy-svg.com">
  <g style="filter: none;">
    <title>Signal</title>
    <path style="fill: rgb(55, 185, 76);" transform="matrix(0.244919, 0.377142, -0.377142, 0.244919, 365.66568, -24.490297)" d="M -263.733 785 A 728.733 728.733 0 0 1 181.538 113.657 L 465 785 Z" bx:shape="pie 465 785 0 728.733 270 337.109 1@620f0612"/>
    <path style="fill: rgb(58, 230, 23);" transform="matrix(0.244919, 0.377142, -0.377142, 0.244919, 365.592072, -24.234922)" d="M -118.751 785 A 583.751 583.751 0 0 1 237.933 247.222 L 465 785 Z" bx:shape="pie 465 785 0 583.751 270 337.109 1@fcc67265"/>
    <path style="fill: rgb(216, 216, 216);" transform="matrix(0.244919, 0.377142, -0.377142, 0.244919, 365.611237, -23.887856)" d="M 25.388 785 A 439.612 439.612 0 0 1 294 380.009 L 465 785 Z" bx:shape="pie 465 785 0 439.612 270 337.109 1@3f2ddc6a"/>
  </g>
  <path d="M 364.703 630.437 H 457.664 L 457.664 602.14 L 511.735 639.869 L 457.664 677.599 L 457.664 649.302 H 364.703 V 630.437 Z" style="" transform="matrix(-0.000047, 1, -1, -0.001495, 896.137573, -167.327881)" bx:shape="arrow 364.703 602.14 147.032 75.459 18.865 54.071 0 1@f4e5a1e6"/>
</svg>