<?xml version="1.0" encoding="utf-8"?>
<svg viewBox="0 0 314.27 312.571" xmlns="http://www.w3.org/2000/svg" xmlns:bx="https://boxy-svg.com">
  <path style="stroke: rgb(0, 0, 0); stroke-width: 13px; stroke-linejoin: round; stroke-linecap: round; fill: none;" d="M 90.6 22.461 L 82.10633333333332 23.876666666666665 C 73.61266666666667 25.292333333333332 56.62533333333332 28.123666666666665 42.469166666666666 36.428666666666665 C 28.313 44.733666666666664 16.988 58.51233333333332 11.514166666666666 74.93366666666667 C 6.040333333333334 91.355 6.417666666666666 110.419 10.759 126.3685 C 15.100333333333333 142.318 23.405666666666665 155.153 34.541999999999994 164.49616666666665 C 45.678333333333335 173.83933333333334 59.64566666666667 179.69066666666666 76.12683333333334 178.93349999999998 C 92.608 178.17633333333333 111.60300000000001 170.81066666666666 125.09866666666669 161.93933333333334 C 138.59433333333334 153.06799999999998 146.59066666666666 142.691 156.912 128.34816666666669 C 167.23333333333332 114.00533333333333 179.87966666666668 95.69666666666667 198.62766666666667 77.736 C 217.37566666666666 59.77533333333334 242.2253333333333 42.16266666666667 255.91283333333334 35.36683333333334 C 269.6003333333333 28.570999999999998 272.12566666666663 32.592 273.86033333333336 35.115 C 275.595 37.638 276.539 38.663000000000004 276.658 38.6255 C 276.777 38.588 276.07099999999997 37.488 274.08033333333333 36.268166666666666 C 272.0896666666667 35.04833333333333 268.8143333333333 33.708666666666666 263.03066666666666 34.093333333333334 C 257.247 34.478 248.955 36.586999999999996 237.35233333333335 39.18266666666667 C 225.74966666666668 41.77833333333333 210.83633333333333 44.86066666666667 197.33966666666666 51.78116666666667 C 183.843 58.70166666666666 171.763 69.46033333333332 159.49416666666664 81.91783333333332 C 147.22533333333334 94.37533333333333 134.76766666666666 108.53166666666668 122.782 118.62983333333334 C 110.79633333333334 128.72799999999998 99.28266666666667 134.768 87.67450000000001 136.6555 C 76.06633333333333 138.543 64.36366666666667 136.278 57.474333333333334 128.06733333333332 C 50.585 119.85666666666667 48.50899999999999 105.70033333333333 53.511 95.79083333333334 C 58.513 85.88133333333333 70.593 80.21866666666666 83.14483333333334 76.9155 C 95.69666666666667 73.61233333333332 108.72033333333333 72.66866666666665 115.23216666666667 72.19683333333332 L 121.744 71.725" transform="matrix(0.9999999999999999, 0, 0, 1, 0, 0)" bx:d="M 90.6 22.461 U 39.638 30.955 U 5.663 72.291 U 6.795 129.483 U 31.711 167.988 U 73.613 185.542 U 130.598 163.445 U 154.587 132.314 U 192.526 77.388 U 267.075 24.55 U 274.651 36.613 U 277.483 39.688 U 275.365 36.388 U 265.539 32.369 U 240.663 38.696 U 195.923 47.943 U 159.683 80.219 U 122.31 122.688 U 87.769 140.808 U 52.661 134.013 U 46.433 91.544 U 82.673 74.556 U 121.744 71.725 1@17305137"/>
  <polygon style="stroke: rgb(0, 0, 0); stroke-width: 25px; stroke-linecap: round; stroke-linejoin: round; fill: none; transform-origin: 164.847px 153.016px;" points="260.38 25.279 295.872 63.328 110.967 256.089 57.094 274.606 69.055 218.587">
    <title>Pencil</title>
  </polygon>
  <polygon style="stroke: rgb(0, 0, 0); stroke-linecap: round; stroke-linejoin: round; stroke-width: 16px;" points="282.272 260.099 266.591 271.033 202.084 170.001 211.956 161.038" transform="matrix(0.9999999999999999, 0, 0, 1, 0, 0)">
    <title>Wand-lower</title>
  </polygon>
  <path style="fill: rgb(216, 216, 216); stroke: rgb(0, 0, 0); stroke-width: 15px; stroke-linejoin: round; stroke-linecap: round;" d="M 157.55 81.275 L 152.614 85.45 L 110.469 15.968 L 157.55 81.275 Z" transform="matrix(0.9999999999999999, 0, 0, 1, 0, 0)">
    <title>Wand-upper</title>
  </path>
</svg>