<svg width="132" height="176" xmlns="http://www.w3.org/2000/svg" preserveAspectRatio="xMidYMid meet">

 <g>
  <title>background</title>
  <rect fill="none" id="canvas_background" height="178" width="134" y="-1" x="-1"/>
 </g>
 <g>
  <title>Layer 1</title>
  <g id="svg_1" fill="#000000" transform="translate(0,186) scale(0.10000000149011612,-0.10000000149011612) ">
   <path id="svg_2" d="m390,1778c0,-39 4,-68 10,-68c6,0 10,22 10,49c0,51 18,78 45,67c11,-4 15,-21 15,-61c0,-41 4,-55 15,-55c10,0 15,15 17,58c3,53 5,57 28,57c23,0 25,-4 28,-57c2,-32 7,-58 12,-58c15,0 12,116 -2,128c-7,5 -50,9 -95,9l-83,-1l0,-68z"/>
   <path id="svg_3" d="m195,1686c-20,-58 -34,-110 -30,-115c10,-18 25,-12 37,14c10,21 18,25 58,25c40,0 48,-4 58,-25c12,-26 26,-32 37,-15c3,5 -11,57 -32,115c-35,97 -40,105 -64,105c-24,0 -29,-8 -64,-104zm82,9c11,-34 11,-35 -18,-35c-33,0 -32,-2 -18,39c14,40 23,39 36,-4z"/>
   <path id="svg_4" d="m302,1527c-46,-49 -12,-127 55,-127c36,0 73,38 73,75c0,65 -84,99 -128,52zm89,-28c16,-30 -3,-69 -34,-69c-29,0 -47,17 -47,45c0,45 60,63 81,24z"/>
   <path id="svg_5" d="m1122,1543c-7,-3 -19,-18 -28,-35c-40,-77 59,-146 121,-83c30,30 32,64 4,99c-20,25 -61,34 -97,19zm74,-47c9,-37 -4,-66 -30,-66c-28,0 -46,18 -46,45c0,47 65,65 76,21z"/>
   <path id="svg_6" d="m86,1531c-3,-4 3,-16 14,-26c25,-23 25,-37 0,-60c-31,-28 -8,-42 26,-16l27,21l24,-22c17,-16 26,-19 34,-11c8,8 5,16 -10,29c-26,23 -26,35 0,58c15,13 18,21 10,29c-8,8 -17,5 -34,-11l-24,-22l-18,20c-19,21 -40,26 -49,11z"/>
   <path id="svg_7" d="m157,1383c-4,-3 -7,-285 -7,-625l0,-618l520,0l520,0l0,625l0,625l-513,0c-283,0 -517,-3 -520,-7zm193,-168l0,-135l-85,0l-85,0l0,135l0,135l85,0l85,0l0,-135zm200,0l0,-135l-80,0l-80,0l0,135l0,135l80,0l80,0l0,-135zm200,0l0,-135l-80,0l-80,0l0,135l0,135l80,0l80,0l0,-135zm200,111c0,-14 -10,-30 -25,-40c-19,-12 -25,-25 -25,-51c0,-24 7,-39 25,-53c19,-15 25,-29 25,-61l0,-41l-80,0l-80,0l0,135l0,135l80,0c78,0 80,-1 80,-24zm210,-111l0,-135l-85,0l-85,0l0,43c0,24 7,52 15,63c19,25 19,65 0,90c-8,10 -15,31 -15,47l0,27l85,0l85,0l0,-135zm-810,-300l0,-135l-85,0l-85,0l0,135l0,135l85,0l85,0l0,-135zm200,107c0,-19 -7,-30 -22,-37c-29,-13 -46,-59 -32,-83c6,-9 20,-21 32,-27c18,-8 22,-18 22,-52l0,-43l-80,0l-80,0l0,135l0,135l80,0l80,0l0,-28zm200,-1c0,-20 -6,-30 -20,-34c-46,-12 -46,-102 0,-114c16,-4 20,-14 20,-49l0,-44l-80,0l-80,0l0,44c0,24 8,58 18,75c16,30 16,32 0,62c-10,17 -18,44 -18,60l0,29l80,0l80,0l0,-29zm200,-106l0,-135l-80,0l-80,0l0,41c0,22 8,54 17,70c15,25 16,33 4,62c-7,17 -16,47 -18,65l-5,32l81,0l81,0l0,-135zm210,0l0,-135l-85,0l-85,0l0,135l0,135l85,0l85,0l0,-135zm-810,-300l0,-135l-85,0l-85,0l0,135l0,135l85,0l85,0l0,-135zm200,0l0,-135l-80,0l-80,0l0,135l0,135l80,0l80,0l0,-135zm200,0l0,-135l-80,0l-80,0l0,135l0,135l80,0l80,0l0,-135zm200,0l0,-135l-80,0l-80,0l0,135l0,135l80,0l80,0l0,-135zm210,0l0,-135l-85,0l-85,0l0,135l0,135l85,0l85,0l0,-135zm-810,-310l0,-135l-85,0l-85,0l0,135l0,135l85,0l85,0l0,-135zm200,0l0,-135l-80,0l-80,0l0,135l0,135l80,0l80,0l0,-135zm200,0l0,-135l-80,0l-80,0l0,135l0,135l80,0l80,0l0,-135zm200,0l0,-135l-80,0l-80,0l0,135l0,135l80,0l80,0l0,-135zm210,0l0,-135l-85,0l-85,0l0,135l0,135l85,0l85,0l0,-135z"/>
  </g>
 </g>
</svg>