<?xml version="1.0" encoding="utf-8"?>
<svg viewBox="0 0 500 500" width="500" height="500" xmlns="http://www.w3.org/2000/svg">
  <g id="layer1" transform="matrix(1, 0, 0, 1, 70.787384, 87.91214)">
    <g id="g4549" style="" transform="matrix(1.83919, 1.489346, -1.481542, 1.829555, 233.608734, -326.074036)">
      <path transform="rotate(-126.04083)" d="m -125.03521,1.4576318 a 33.080757,33.359581 0 0 1 8.94256,42.1370852 33.080757,33.359581 0 0 1 -39.72503,15.876549 33.080757,33.359581 0 0 1 -22.10972,-36.874683" id="path4485" style="opacity:1;fill:none;fill-opacity:1;fill-rule:nonzero;stroke:#000000;stroke-width:9.11011982;stroke-linecap:round;stroke-linejoin:round;stroke-miterlimit:4;stroke-dasharray:none;stroke-opacity:1;paint-order:normal"/>
      <g transform="rotate(-11.691708,212.71168,967.36182)" id="g4522">
        <path transform="rotate(175.15375)" d="m -265.36301,-192.70557 a 33.080757,33.359581 0 0 1 14.1654,39.07496 33.080757,33.359581 0 0 1 -34.62947,22.61433 33.080757,33.359581 0 0 1 -29.56281,-29.01988 33.080757,33.359581 0 0 1 21.48485,-35.51753" id="path4514" style="opacity:1;fill:none;fill-opacity:1;fill-rule:nonzero;stroke:#000000;stroke-width:8;stroke-linecap:butt;stroke-linejoin:round;stroke-miterlimit:4;stroke-dasharray:none;stroke-opacity:1;paint-order:normal"/>
        <path style="opacity:1;fill:none;fill-opacity:1;fill-rule:nonzero;stroke:#000000;stroke-width:6.98960304;stroke-linecap:butt;stroke-linejoin:round;stroke-miterlimit:4;stroke-dasharray:none;stroke-opacity:1;paint-order:normal" d="m 310.86482,165.9563 v 81.8515 c -2.02917,4.40447 0,0 -15.20005,17.34076 -13.54477,-12.29327 -11.26215,-6.67305 -11.42326,-19.2828 l -8.07881,-9.43768 6.05911,-8.90852 -6.05911,-10.49603 6.05911,-10.49602 -6.05911,-10.49602 6.05911,-10.49602 v -19.5461" id="path4516"/>
        <path style="fill:none;stroke:#000000;stroke-width:5;stroke-linecap:round;stroke-linejoin:miter;stroke-miterlimit:4;stroke-dasharray:none;stroke-opacity:1" d="m 300.98734,177.15787 v 59.86736" id="path4518"/>
        <path style="opacity:1;fill:none;fill-opacity:1;fill-rule:nonzero;stroke:#000000;stroke-width:3;stroke-linecap:butt;stroke-linejoin:round;stroke-miterlimit:4;stroke-dasharray:none;stroke-opacity:1;paint-order:normal" id="path4520" d="m -308.94293,81.22399 a 11.026919,11.119861 0 0 1 11.29716,10.836362 11.026919,11.119861 0 0 1 -10.7417,11.396298 11.026919,11.119861 0 0 1 -11.30494,-10.82811 11.026919,11.119861 0 0 1 10.73352,-11.404139" transform="rotate(-140.0066)"/>
      </g>
      <g id="g4532" transform="rotate(13.603785,183.63856,-684.44038)">
        <path style="opacity:1;fill:none;fill-opacity:1;fill-rule:nonzero;stroke:#000000;stroke-width:8;stroke-linecap:butt;stroke-linejoin:round;stroke-miterlimit:4;stroke-dasharray:none;stroke-opacity:1;paint-order:normal" id="path4524" d="m -265.36301,-192.70557 a 33.080757,33.359581 0 0 1 13.62158,40.59146 33.080757,33.359581 0 0 1 -37.2485,20.62564" transform="rotate(175.15375)"/>
        <path id="path4526" d="m 310.86482,165.9563 v 81.8515 c -2.02917,4.40447 0,0 -15.20005,17.34076 -13.54477,-12.29327 -11.26215,-6.67305 -11.42326,-19.2828 l -8.07881,-9.43768 6.05911,-8.90852 -6.05911,-10.49603 6.05911,-10.49602 -6.05911,-10.49602 6.05911,-10.49602 v -19.5461" style="opacity:1;fill:none;fill-opacity:1;fill-rule:nonzero;stroke:#000000;stroke-width:6.98960304;stroke-linecap:butt;stroke-linejoin:round;stroke-miterlimit:4;stroke-dasharray:none;stroke-opacity:1;paint-order:normal"/>
        <path id="path4528" d="m 300.98734,177.15787 v 59.86736" style="fill:none;stroke:#000000;stroke-width:5;stroke-linecap:round;stroke-linejoin:miter;stroke-miterlimit:4;stroke-dasharray:none;stroke-opacity:1"/>
        <path transform="rotate(175.15375)" d="m -304.72207,-188.98913 a 33.080757,33.359581 0 0 1 10.57765,-6.47546" id="path4536" style="opacity:1;fill:none;fill-opacity:1;fill-rule:nonzero;stroke:#000000;stroke-width:8;stroke-linecap:butt;stroke-linejoin:round;stroke-miterlimit:4;stroke-dasharray:none;stroke-opacity:1;paint-order:normal"/>
      </g>
    </g>
  </g>
</svg>