<svg width="512" height="512" xmlns="http://www.w3.org/2000/svg">
 <style type="text/css">.st0{fill:#333333;}</style>

 <g>
  <title>background</title>
  <rect fill="none" id="canvas_background" height="602" width="802" y="-1" x="-1"/>
 </g>
 <g>
  <title>Layer 1</title>
  <g transform="rotate(-179.9771270751953 255.99998474121097,256.04998779296875) " id="XMLID_1_">
   <path d="m405.3,256c0,4.3 -1.7,8.5 -5.1,11.9l-238.9,239c-3.4,3.4 -7.7,5.1 -11.9,5.1s-8.5,-1.7 -11.9,-5.1l-25.6,-25.6c-3.4,-3.4 -5.1,-7.7 -5.1,-11.9s1.7,-8.5 5.1,-11.9l201.3,-201.5l-201.4,-201.4c-3.4,-3.4 -5.1,-7.7 -5.1,-11.9s1.7,-8.5 5.1,-11.9l25.6,-25.6c3.4,-3.4 7.7,-5.1 11.9,-5.1s8.5,1.7 11.9,5.1l238.9,238.9c3.5,3.4 5.2,7.6 5.2,11.9z" class="st0" id="XMLID_5_"/>
  </g>
 </g>
</svg>