<?xml version="1.0" standalone="no"?>
<!DOCTYPE svg PUBLIC "-//W3C//DTD SVG 20010904//EN"
 "http://www.w3.org/TR/2001/REC-SVG-20010904/DTD/svg10.dtd">
<svg version="1.0" xmlns="http://www.w3.org/2000/svg"
 width="980.000000pt" height="980.000000pt" viewBox="0 0 980.000000 980.000000"
 preserveAspectRatio="xMidYMid meet">

<g transform="translate(0.000000,980.000000) scale(0.100000,-0.100000)"
fill="#000000" stroke="none">
<path d="M4560 9789 c-1035 -75 -1998 -463 -2800 -1128 -150 -123 -501 -475
-622 -621 -881 -1068 -1270 -2403 -1098 -3765 119 -934 501 -1801 1124 -2545
98 -117 370 -393 496 -504 1328 -1166 3158 -1531 4825 -962 895 305 1700 879
2281 1627 540 695 884 1519 993 2384 179 1408 -247 2795 -1184 3865 -146 166
-427 434 -600 573 -756 606 -1609 958 -2575 1062 -174 19 -664 27 -840 14z
m580 -1069 c651 -44 1269 -244 1802 -583 l128 -82 -2662 -2662 -2663 -2663
-63 98 c-730 1129 -810 2581 -207 3782 342 681 886 1252 1552 1629 631 356
1391 530 2113 481z m3004 -1790 c656 -1035 765 -2372 287 -3509 -100 -238
-192 -407 -347 -641 -416 -628 -1008 -1118 -1705 -1411 -1024 -431 -2200 -389
-3202 112 -107 54 -289 160 -381 222 l-59 39 2659 2659 c1462 1462 2661 2656
2665 2653 4 -2 42 -58 83 -124z"/>
</g>
</svg>
