<svg width="512" height="512" xmlns="http://www.w3.org/2000/svg">

 <g>
  <title>background</title>
  <rect fill="none" id="canvas_background" height="602" width="802" y="-1" x="-1"/>
 </g>
 <g>
  <title>Layer 1</title>
  <g id="XMLID_1_">
   <path d="m309.6,403.7c7.9,-17.3 25.2,-29.9 44.9,-29.9c19.7,0 37.8,11.8 44.9,29.9l92.9,0c11,0 19.7,8.7 19.7,19.7s-8.7,19.7 -19.7,19.7l-92.9,0c-7.9,17.3 -25.2,29.9 -44.9,29.9c-19.7,0 -37.8,-11.8 -44.9,-29.9l-289.9,0c-11,0 -19.7,-8.7 -19.7,-19.7s8.7,-19.7 19.7,-19.7l289.9,0zm-197,-167.8c7.9,-17.3 25.2,-29.9 44.9,-29.9s37.8,11.8 44.9,29.9l289.9,0c11,0 19.7,8.7 19.7,19.7s-8.7,19.7 -19.7,19.7l-289.9,0c-7.9,17.3 -25.2,29.9 -44.9,29.9s-37.8,-11.8 -44.9,-29.9l-92.9,0c-11,0 -19.7,-8.7 -19.7,-19.7s8.7,-19.7 19.7,-19.7l92.9,0zm197,-167c7.9,-17.3 25.2,-29.9 44.9,-29.9c19.7,0 37.8,11.8 44.9,29.9l92.9,0c11,0 19.7,8.7 19.7,19.7s-8.7,19.7 -19.7,19.7l-92.9,0c-7.9,17.3 -25.2,29.9 -44.9,29.9c-19.7,0 -37.8,-11.8 -44.9,-29.9l-289.9,0c-11,0 -19.7,-8.7 -19.7,-19.7s8.7,-19.7 19.7,-19.7l289.9,0z" id="XMLID_6_"/>
  </g>
 </g>
</svg>