<?xml version="1.0" standalone="no"?>
<!DOCTYPE svg PUBLIC "-//W3C//DTD SVG 20010904//EN"
 "http://www.w3.org/TR/2001/REC-SVG-20010904/DTD/svg10.dtd">
<svg version="1.0" xmlns="http://www.w3.org/2000/svg"
 width="89.000000pt" height="84.000000pt" viewBox="0 0 89.000000 84.000000"
 preserveAspectRatio="xMidYMid meet">

<g transform="translate(0.000000,84.000000) scale(0.100000,-0.100000)"
fill="#000000" stroke="none">
<path d="M130 786 c0 -2 -11 -33 -25 -70 -20 -54 -22 -66 -10 -66 8 0 15 7 15
15 0 10 11 15 35 15 24 0 35 -5 35 -15 0 -8 7 -15 16 -15 11 0 14 5 9 18 -4 9
-16 41 -27 70 -12 28 -27 52 -34 52 -8 0 -14 -2 -14 -4z m30 -63 c0 -7 -7 -13
-15 -13 -16 0 -19 9 -9 35 5 13 8 14 15 3 5 -7 9 -19 9 -25z"/>
<path d="M230 704 c0 -30 5 -54 10 -54 6 0 10 20 10 45 0 32 4 45 14 45 17 0
26 -22 26 -61 0 -16 5 -29 10 -29 6 0 10 20 10 45 0 33 4 45 15 45 11 0 15
-12 15 -45 0 -33 4 -45 15 -45 11 0 15 11 15 38 0 58 -11 67 -80 68 l-60 1 0
-53z"/>
<path d="M70 340 l0 -280 390 0 390 0 0 280 0 280 -390 0 -390 0 0 -280z m100
70 l0 -190 30 0 30 0 0 -70 0 -70 -65 0 -65 0 1 33 c0 25 2 28 8 13 15 -39 76
-40 90 -2 11 29 2 56 -23 65 -29 11 -56 2 -66 -23 -5 -13 -9 70 -9 207 l-1
227 35 0 35 0 0 -190z m210 -70 l0 -260 -65 0 -65 0 0 70 c0 63 2 70 20 70 19
0 20 7 20 190 l0 190 45 0 45 0 0 -260z m90 70 l0 -190 30 0 30 0 0 -70 0 -70
-65 0 -65 0 1 33 c0 25 2 28 8 13 15 -39 76 -40 90 -2 11 29 2 56 -23 65 -29
11 -56 2 -66 -23 -5 -13 -9 70 -9 207 l-1 227 35 0 35 0 0 -190z m150 0 l0
-190 30 0 30 0 0 -70 0 -70 -65 0 -65 0 0 70 c0 63 2 70 20 70 19 0 20 7 20
190 0 162 2 190 15 190 13 0 15 -28 15 -190z m210 -70 l0 -260 -65 0 -65 0 1
33 c0 28 1 29 9 11 23 -58 108 -22 92 39 -10 39 -77 41 -92 3 -7 -17 -9 -14
-9 17 -1 31 2 37 19 37 19 0 20 7 20 190 l0 190 45 0 45 0 0 -260z"/>
</g>
</svg>
