<?xml version="1.0" encoding="utf-8"?>
<svg viewBox="0 0 372.537 365.148" width="372.537" height="365.148" xmlns="http://www.w3.org/2000/svg">
  <path style="stroke: rgb(0, 0, 0); fill: none; stroke-width: 32px; stroke-linecap: round;" d="M 49.157 325.633 C 69.246 208.36 205.764 157.449 294.892 233.993 C 308.222 245.444 319.526 259.163 328.302 274.55" transform="matrix(-0.999358, -0.035838, 0.035838, -0.999358, 367.960999, 529.881165)"/>
  <path d="M 89.026 194.204 L 19.73 239.114 L 92.401 278.162 L 89.026 194.204 Z" style="" transform="matrix(-0.999358, -0.035838, 0.035838, -0.999358, 103.630669, 474.223541)"/>
  <path style="stroke: rgb(0, 0, 0); fill: none; stroke-width: 32px; stroke-linecap: round;" d="M 320.569 39.59 C 300.482 156.86 163.963 207.772 74.835 131.227 C 61.503 119.779 50.197 106.059 41.424 90.673" transform="matrix(-0.999358, -0.035838, 0.035838, -0.999358, 358.164642, 213.578018)"/>
  <path d="M 280.698 171.02 L 349.995 126.11 L 277.324 87.062 L 280.698 171.02 Z" style="" transform="matrix(-0.999358, -0.035838, 0.035838, -0.999358, 622.49292, 269.240021)"/>
</svg>