<svg width="600" height="600" xmlns="http://www.w3.org/2000/svg">
 <!-- Created with Method Draw - http://github.com/duopixel/Method-Draw/ -->

 <g>
  <title>background</title>
  <rect fill="none" id="canvas_background" height="602" width="602" y="-1" x="-1"/>
  <g display="none" overflow="visible" y="0" x="0" height="100%" width="100%" id="canvasGrid">
   <rect fill="url(#gridpattern)" stroke-width="0" y="0" x="0" height="100%" width="100%"/>
  </g>
 </g>
 <g>
  <title>Layer 1</title>

  <g stroke="null" id="svg_11">
   <g stroke="null" transform="rotate(10.844244956970215 241.7673950195309,271.9999999999999) matrix(27.983333604786804,0,0,27.402156206764733,45.0923860662497,221.80865454440067) " id="svg_7">
    <g stroke="null" fill="#000000" id="svg_8">
     <path stroke="null" id="svg_9" d="m6.01229,4.48516l0,-4.704l2,-0.552l0,4.68l-2,0.576zm3.938,-1.138l-1.375,0.394l0,-4.68l1.375,-0.384l0,-1.944l-1.375,0.384l0,-4.78177l-0.563,0l0,4.92677l-2,0.575l0,-4.64977l-0.531,0l0,4.82677l-1.375,0.385l0,1.948l1.375,-0.384l0,4.671l-1.375,0.383l0,1.94l1.375,-0.384l0,4.75477l0.531,0l0,-4.92477l2,-0.55l0,4.62577l0.563,0l0,-4.79977l1.375,-0.385l0,-1.947z"/>
    </g>
   </g>
  </g>

  <g stroke="null" id="svg_22">
   <g stroke="null" transform="matrix(25.923887228157515,0,0,26.808797484509515,-272.9819401019922,-165.68243387909206) " id="svg_18">
    <g stroke="null" fill="#000000" id="svg_19">
     <path stroke="null" id="svg_20" d="m28.20639,23.1927c0,0.575 -0.21558,1.12573 -0.807,1.86488c-0.62657,0.78306 -1.154,1.23125 -1.849,1.75825l0,-3.43213c0.158,-0.399 0.391,-0.722 0.7,-0.97c0.308,-0.247 0.62,-0.371 0.936,-0.371c0.522,0 0.853,0.296 0.996,0.886c0.016,0.048 0.024,0.136 0.024,0.264zm-0.075,-2.4c-0.431,0 -0.869,0.119 -1.315,0.358c-0.446,0.238 -0.868,0.557 -1.266,0.954l0,-7.27167l-0.563,0l0,12.4548c0,0.352 0.096,0.528 0.288,0.528c0.111,0 0.24891,-0.093 0.455,-0.216c0.58334,-0.34815 0.94693,-0.58081 1.342,-0.82625c0.45062,-0.27996 0.958,-0.60688 1.629,-1.24688c0.463,-0.465 0.798,-0.934 1.006,-1.406c0.207,-0.473 0.311,-0.941 0.311,-1.406c0,-0.688 -0.183,-1.177 -0.549,-1.466c-0.414,-0.304 -0.861,-0.456 -1.338,-0.456z"/>
    </g>
   </g>
  </g>
 </g>
</svg>