<?xml version="1.0" encoding="utf-8"?>
<svg viewBox="0 0 314.27 312.571" xmlns="http://www.w3.org/2000/svg" xmlns:bx="https://boxy-svg.com">
  <path style="stroke: rgb(0, 0, 0); stroke-width: 13px; stroke-linejoin: round; stroke-linecap: round; fill: none;" d="M 90.6 22.461 L 82.10633333333332 23.876666666666665 C 73.61266666666667 25.292333333333332 56.62533333333332 28.123666666666665 42.469166666666666 36.428666666666665 C 28.313 44.733666666666664 16.988 58.51233333333332 11.514166666666666 74.93366666666667 C 6.040333333333334 91.355 6.417666666666666 110.419 10.759 126.3685 C 15.100333333333333 142.318 23.405666666666665 155.153 34.541999999999994 164.49616666666665 C 45.678333333333335 173.83933333333334 59.64566666666667 179.69066666666666 76.633 179.31316666666666 C 93.62033333333333 178.93566666666666 113.62766666666666 172.32933333333335 127.12333333333333 163.458 C 140.619 154.58666666666667 147.60299999999998 143.45033333333333 157.41816666666668 128.72783333333334 C 167.23333333333332 114.00533333333333 179.87966666666668 95.69666666666667 193.37533333333332 82.86166666666666 C 206.871 70.02666666666667 221.216 62.665333333333336 234.33399999999997 61.43833333333334 C 247.452 60.211333333333336 259.343 65.11866666666667 265.7605 72.008 C 272.17799999999994 78.89733333333334 273.122 87.76866666666666 274.4433333333333 88.80683333333333 C 275.76466666666664 89.84499999999998 277.4633333333333 83.05 276.99133333333333 75.12249999999999 C 276.51933333333335 67.195 273.8766666666666 58.135 267.2703333333333 51.81183333333333 C 260.664 45.48866666666667 250.09399999999997 41.90233333333334 237.54216666666665 41.71366666666666 C 224.99033333333333 41.525 210.45666666666668 44.734 197.1498333333333 51.71783333333334 C 183.843 58.70166666666666 171.763 69.46033333333332 159.49416666666664 81.91783333333332 C 147.22533333333334 94.37533333333333 134.76766666666666 108.53166666666668 122.782 118.62983333333334 C 110.79633333333334 128.72799999999998 99.28266666666667 134.768 87.67450000000001 136.6555 C 76.06633333333333 138.543 64.36366666666667 136.278 57.474333333333334 128.06733333333332 C 50.585 119.85666666666667 48.50899999999999 105.70033333333333 53.511 95.79083333333334 C 58.513 85.88133333333333 70.593 80.21866666666666 83.14483333333334 76.9155 C 95.69666666666667 73.61233333333332 108.72033333333333 72.66866666666665 115.23216666666667 72.19683333333332 L 121.744 71.725" transform="matrix(0.9999999999999999, 0, 0, 1, 0, 0)" bx:d="M 90.6 22.461 U 39.638 30.955 U 5.663 72.291 U 6.795 129.483 U 31.711 167.988 U 73.613 185.542 U 133.635 165.723 U 154.587 132.314 U 192.526 77.388 U 235.561 55.304 U 271.234 70.026 U 274.066 96.64 U 279.162 76.255 U 271.234 49.075 U 239.524 38.316 U 195.923 47.943 U 159.683 80.219 U 122.31 122.688 U 87.769 140.808 U 52.661 134.013 U 46.433 91.544 U 82.673 74.556 U 121.744 71.725 1@0652953f"/>
  <polygon style="stroke: rgb(0, 0, 0); stroke-linecap: round; stroke-linejoin: round; stroke-width: 16px;" points="282.272 260.099 266.591 271.033 170.191 114.187 175.886 107.123" transform="matrix(0.9999999999999999, 0, 0, 1, 0, 0)">
    <title>Wand-lower</title>
  </polygon>
  <path style="fill: rgb(216, 216, 216); stroke: rgb(0, 0, 0); stroke-width: 15px; stroke-linejoin: round; stroke-linecap: round;" d="M 157.55 81.275 L 152.614 85.45 L 110.469 15.968 L 157.55 81.275 Z" transform="matrix(0.9999999999999999, 0, 0, 1, 0, 0)">
    <title>Wand-upper</title>
  </path>
</svg>