<?xml version="1.0" encoding="utf-8"?>
<svg viewBox="44.867 269.884 639.224 532.4" width="639.224" height="532.4" xmlns="http://www.w3.org/2000/svg">
  <path style="color:#000000;fill:#000000;fill-opacity:1;fill-rule:nonzero;stroke:none;stroke-width:0.53149605;marker:none;visibility:visible;display:inline;overflow:visible;enable-background:accumulate" d="M 362.467 399.374 C 282.015 399.677 201.697 429.799 140.154 489.655 L 196.06 544.936 C 288.317 455.326 436.806 454.795 529.716 543.78 L 585.498 487.967 C 523.487 428.577 442.918 399.071 362.467 399.374 L 362.467 399.374 Z M 196.06 544.936 L 195.935 545.03 L 196.06 544.936 Z" id="path4391"/>
  <path style="color:#000000;fill:#000000;fill-opacity:1;fill-rule:nonzero;stroke:none;stroke-width:0.53149605;marker:none;visibility:visible;display:inline;overflow:visible;enable-background:accumulate" d="M 362.373 281.374 C 251.428 281.792 140.649 323.331 55.779 405.874 L 111.248 460.718 C 250.189 326.162 473.51 325.479 613.279 459.343 L 669.935 403.561 C 584.421 321.66 473.318 280.956 362.373 281.374 Z M 111.248 460.718 L 110.685 461.249 L 111.248 460.718 Z" id="path4395"/>
  <path style="color:#000000;fill:#000000;fill-opacity:1;fill-rule:nonzero;stroke:none;stroke-width:0.53149605;marker:none;visibility:visible;display:inline;overflow:visible;enable-background:accumulate" d="M 362.342 516.874 C 312.254 517.063 262.22 535.827 223.904 573.093 L 277.342 625.905 C 324.523 580.084 400.453 579.837 447.967 625.343 L 501.186 572.03 C 462.579 535.055 412.43 516.685 362.342 516.874 L 362.342 516.874 Z M 277.342 625.905 L 277.279 625.968 L 277.342 625.905 Z" id="path4381"/>
  <ellipse style="stroke: rgb(0, 0, 0);" cx="362.469" cy="714.985" rx="79" ry="79"/>
</svg>