<?xml version="1.0" encoding="utf-8"?>
<svg viewBox="0 0 500 500" width="500" height="500" xmlns="http://www.w3.org/2000/svg">
  <g>
    <ellipse style="fill: rgb(255, 255, 255); stroke-width: 19px;" cx="251.414" cy="249.435" rx="232.184" ry="233.597"/>
    <ellipse style="stroke: rgb(0, 0, 0); fill: none; stroke-width: 19px;" cx="250" cy="250" rx="227" ry="227"/>
    <ellipse style="stroke: rgb(0, 0, 0); fill: none; stroke-width: 19px;" cx="250" cy="250" rx="153" ry="227"/>
    <ellipse style="stroke: rgb(0, 0, 0); fill: none; stroke-width: 19px;" cx="250" cy="250" rx="68" ry="227"/>
    <rect x="54.581" y="158.654" width="399.886" style="stroke: rgb(0, 0, 0); fill: none; stroke-width: 19px;" height="0.566"/>
    <rect x="47.512" y="341.629" width="399.321" height="0.566" style="stroke: rgb(0, 0, 0); fill: none; stroke-width: 19px;"/>
    <rect x="94.739" y="-408.653" width="311.652" height="0.001" style="stroke: rgb(0, 0, 0); fill: none; stroke-width: 19px;" transform="matrix(1, 0, 0, -1, 0, 0)"/>
    <rect x="98.983" y="93.326" width="304.298" style="stroke: rgb(0, 0, 0); fill: none; stroke-width: 21px;" height="0.565"/>
    <rect x="30.543" y="-254.807" width="440.611" style="stroke: rgb(0, 0, 0); fill: none; stroke-width: 19px;" height="1.131" transform="matrix(1, 0, 0, -1, 0, 0)"/>
  </g>
  <g transform="matrix(1.077554, 0, 0, 1.121218, -19.102556, -37.550877)" style="">
    <path d="M 145.027 305.035 L 167.478 216.458 L 183.44 216.458 L 159.761 305.035 L 145.027 305.035 Z M 95.038 305.035 L 71.359 216.458 L 87.32 216.458 L 109.772 305.035 L 95.038 305.035 Z M 97.494 305.035 L 120.296 216.458 L 134.328 216.458 L 111.175 305.035 L 97.494 305.035 Z M 143.799 305.035 L 120.471 216.458 L 134.503 216.458 L 157.305 305.035 L 143.799 305.035 Z M 267.623 305.035 L 290.074 216.458 L 306.036 216.458 L 282.357 305.035 L 267.623 305.035 Z M 217.634 305.035 L 193.955 216.458 L 209.917 216.458 L 232.368 305.035 L 217.634 305.035 Z M 220.09 305.035 L 242.892 216.458 L 256.924 216.458 L 233.771 305.035 L 220.09 305.035 Z M 266.395 305.035 L 243.067 216.458 L 257.099 216.458 L 279.901 305.035 L 266.395 305.035 Z M 390.228 305.035 L 412.679 216.458 L 428.641 216.458 L 404.962 305.035 L 390.228 305.035 Z M 340.239 305.035 L 316.56 216.458 L 332.522 216.458 L 354.973 305.035 L 340.239 305.035 Z M 342.695 305.035 L 365.497 216.458 L 379.529 216.458 L 356.376 305.035 L 342.695 305.035 Z M 389 305.035 L 365.672 216.458 L 379.704 216.458 L 402.506 305.035 L 389 305.035 Z" style="white-space: pre; fill: rgb(255, 255, 255); stroke: rgb(255, 255, 255); stroke-linejoin: round; stroke-width: 36px;"/>
    <path d="M 144.946 305.113 L 167.397 216.536 L 183.359 216.536 L 159.68 305.113 L 144.946 305.113 Z M 94.957 305.113 L 71.278 216.536 L 87.239 216.536 L 109.691 305.113 L 94.957 305.113 Z M 97.413 305.113 L 120.215 216.536 L 134.247 216.536 L 111.094 305.113 L 97.413 305.113 Z M 143.718 305.113 L 120.39 216.536 L 134.422 216.536 L 157.224 305.113 L 143.718 305.113 Z M 267.542 305.113 L 289.993 216.536 L 305.955 216.536 L 282.276 305.113 L 267.542 305.113 Z M 217.553 305.113 L 193.874 216.536 L 209.836 216.536 L 232.287 305.113 L 217.553 305.113 Z M 220.009 305.113 L 242.811 216.536 L 256.843 216.536 L 233.69 305.113 L 220.009 305.113 Z M 266.314 305.113 L 242.986 216.536 L 257.018 216.536 L 279.82 305.113 L 266.314 305.113 Z M 390.147 305.113 L 412.598 216.536 L 428.56 216.536 L 404.881 305.113 L 390.147 305.113 Z M 340.158 305.113 L 316.479 216.536 L 332.441 216.536 L 354.892 305.113 L 340.158 305.113 Z M 342.614 305.113 L 365.416 216.536 L 379.448 216.536 L 356.295 305.113 L 342.614 305.113 Z M 388.919 305.113 L 365.591 216.536 L 379.623 216.536 L 402.425 305.113 L 388.919 305.113 Z" style="white-space: pre; stroke-miterlimit: 1; stroke: rgb(0, 0, 0); stroke-width: 7px; stroke-linejoin: round;"/>
  </g>
</svg>