<?xml version="1.0" encoding="utf-8"?>
<svg viewBox="0 0 372.537 365.148" width="372.537" height="365.148" xmlns="http://www.w3.org/2000/svg" xmlns:bx="https://boxy-svg.com">
  <defs>
    <linearGradient gradientUnits="userSpaceOnUse" x1="197.435" y1="162.517" x2="197.435" y2="223.091" id="gradient-0" gradientTransform="matrix(0.012187, 0.999925, -2.635791, 0.032126, 689.019899, -8.586433)">
      <stop offset="0" style=""/>
      <stop offset="1" style="stop-color: rgba(165, 165, 165, 1)"/>
    </linearGradient>
  </defs>
  <path d="M 10.862 186.986 L 5.162 186.986 L 5.162 185.266 L 6.632 185.056 L 13.592 167.076 L 15.902 167.076 L 22.742 185.056 L 24.202 185.266 L 24.202 186.986 L 18.492 186.986 L 18.492 185.266 L 19.992 185.006 L 18.682 181.336 L 10.712 181.336 L 9.352 185.006 L 10.862 185.266 L 10.862 186.986 Z M 14.522 170.986 L 11.542 179.086 L 17.862 179.086 L 14.932 170.986 L 14.772 170.536 L 14.692 170.536 L 14.522 170.986 Z" transform="matrix(6.306387, 0, 0, 7.111163, -19.699339, -979.359375)" style="fill: rgb(85, 85, 85); white-space: pre;"/>
  <path d="M 110.83 185.233 H 224.433 L 224.433 162.517 L 284.04 192.804 L 224.433 223.091 L 224.433 200.376 H 110.83 V 185.233 Z" style="fill: url(#gradient-0);" transform="matrix(0.743096, -0.669185, 0.669185, 0.743096, -143.183853, 126.983879)" bx:shape="arrow 110.83 162.517 173.21 60.574 15.143 59.607 0 1@597d11dc"/>
  <path d="M 207.805 126.499 L 202.105 126.499 L 202.105 124.779 L 203.575 124.569 L 210.535 106.589 L 212.845 106.589 L 219.685 124.569 L 221.145 124.779 L 221.145 126.499 L 215.435 126.499 L 215.435 124.779 L 216.935 124.519 L 215.625 120.849 L 207.655 120.849 L 206.295 124.519 L 207.805 124.779 L 207.805 126.499 Z M 211.465 110.499 L 208.485 118.599 L 214.805 118.599 L 211.875 110.499 L 211.715 110.049 L 211.635 110.049 L 211.465 110.499 Z" transform="matrix(12.422243, 0, 0, 12.534703, -2381.397461, -1314.748291)" style="fill: rgb(44, 44, 44); white-space: pre;"/>
</svg>